<?xml version="1.0" encoding="UTF-8" standalone="no"?><!DOCTYPE svg PUBLIC "-//W3C//DTD SVG 1.1//EN" "http://www.w3.org/Graphics/SVG/1.1/DTD/svg11.dtd"><svg width="100%" height="100%" viewBox="0 0 60 60" version="1.1" xmlns="http://www.w3.org/2000/svg" xmlns:xlink="http://www.w3.org/1999/xlink" xml:space="preserve" xmlns:serif="http://www.serif.com/" style="fill-rule:evenodd;clip-rule:evenodd;stroke-linejoin:round;stroke-miterlimit:1.41421;"><path id="_x31_8_" serif:id="_x31_8" d="M49.091,33.825c-0.604,0 -1.091,0.489 -1.091,1.092l0,13.875c0,3.195 -2.594,5.794 -5.785,5.794l-34.248,0c-3.19,0 -5.785,-2.601 -5.785,-5.794l0,-27.749c0,-3.195 2.595,-5.794 5.785,-5.794l20.397,0c0.604,0 1.091,-0.489 1.091,-1.092c0,-0.604 -0.488,-1.092 -1.091,-1.092l-20.397,0c-4.395,-0.001 -7.967,3.578 -7.967,7.978l0,27.749c0,4.399 3.572,7.979 7.967,7.979l34.248,0c4.394,0 7.968,-3.58 7.968,-7.979l0,-13.875c-0.003,-0.604 -0.489,-1.092 -1.092,-1.092Zm-2.216,-30.596c-7.235,0 -13.121,5.897 -13.121,13.146c0,3.001 1.018,5.76 2.714,7.974l-9.833,16.189c-0.286,0.471 -0.176,1.086 0.259,1.425c0.198,0.158 0.436,0.234 0.673,0.234c0.281,0 0.561,-0.107 0.771,-0.318l13.391,-13.414c1.581,0.678 3.32,1.056 5.146,1.056c7.237,0 13.125,-5.898 13.125,-13.147c0,-7.248 -5.888,-13.145 -13.125,-13.145Zm-13.651,30.665l4.775,-7.865c0.537,0.497 1.111,0.952 1.724,1.354l-6.499,6.511Zm13.651,-6.559c-6.032,0 -10.94,-4.918 -10.94,-10.961c0,-6.043 4.908,-10.959 10.94,-10.959c6.035,0 10.943,4.917 10.943,10.96c0,6.043 -4.908,10.96 -10.943,10.96Zm6.134,-16.434c-0.397,-0.447 -1.088,-0.489 -1.54,-0.088c-0.45,0.401 -0.488,1.091 -0.088,1.543c0.984,1.106 1.529,2.533 1.529,4.018c0,3.333 -2.707,6.043 -6.035,6.043c-0.604,0 -1.091,0.49 -1.091,1.092c0,0.604 0.488,1.092 1.091,1.092c4.53,0 8.216,-3.691 8.216,-8.228c0,-2.021 -0.74,-3.964 -2.082,-5.472Z" style="fill:#f6a821;fill-rule:nonzero;"/></svg>