<?xml version="1.0" encoding="UTF-8" standalone="no"?><!DOCTYPE svg PUBLIC "-//W3C//DTD SVG 1.1//EN" "http://www.w3.org/Graphics/SVG/1.1/DTD/svg11.dtd"><svg width="100%" height="100%" viewBox="0 0 60 60" version="1.1" xmlns="http://www.w3.org/2000/svg" xmlns:xlink="http://www.w3.org/1999/xlink" xml:space="preserve" xmlns:serif="http://www.serif.com/" style="fill-rule:evenodd;clip-rule:evenodd;stroke-linejoin:round;stroke-miterlimit:1.41421;"><g><path d="M8.136,43.302l0,-39.743c0,-0.562 -0.455,-1.017 -1.017,-1.017c-0.563,0 -1.017,0.455 -1.017,1.017l0,39.743c-3.444,0.496 -6.102,3.458 -6.102,7.037c0,3.924 3.194,7.119 7.119,7.119c3.924,0 7.118,-3.195 7.118,-7.119c0,-3.579 -2.658,-6.541 -6.101,-7.037Zm-1.017,12.122c-2.804,0 -5.085,-2.281 -5.085,-5.085c0,-2.804 2.281,-5.085 5.085,-5.085c2.803,0 5.084,2.281 5.084,5.085c0,2.804 -2.281,5.085 -5.084,5.085Z" style="fill:#f6a821;fill-rule:nonzero;"/><path d="M23.39,31.098l0,-27.539c0,-0.562 -0.455,-1.017 -1.017,-1.017c-0.562,0 -1.017,0.455 -1.017,1.017l0,27.539c-3.443,0.497 -6.102,3.459 -6.102,7.038c0,3.578 2.659,6.541 6.102,7.037l0,11.268c0,0.562 0.455,1.017 1.017,1.017c0.562,0 1.017,-0.455 1.017,-1.017l0,-11.268c3.443,-0.496 6.102,-3.459 6.102,-7.037c0,-3.579 -2.659,-6.541 -6.102,-7.038Zm-1.017,12.122c-2.804,0 -5.085,-2.281 -5.085,-5.084c0,-2.804 2.281,-5.085 5.085,-5.085c2.804,0 5.085,2.281 5.085,5.085c0,2.803 -2.281,5.084 -5.085,5.084Z" style="fill:#f6a821;fill-rule:nonzero;"/><path d="M38.644,18.895l0,-15.336c0,-0.562 -0.455,-1.017 -1.017,-1.017c-0.562,0 -1.017,0.455 -1.017,1.017l0,15.336c-3.443,0.496 -6.102,3.459 -6.102,7.037c0,3.579 2.659,6.541 6.102,7.037l0,23.472c0,0.562 0.455,1.017 1.017,1.017c0.562,0 1.017,-0.455 1.017,-1.017l0,-23.472c3.443,-0.496 6.102,-3.458 6.102,-7.037c0,-3.578 -2.659,-6.541 -6.102,-7.037Zm-1.017,12.122c-2.804,0 -5.085,-2.281 -5.085,-5.085c0,-2.804 2.281,-5.085 5.085,-5.085c2.804,0 5.085,2.281 5.085,5.085c0,2.804 -2.281,5.085 -5.085,5.085Z" style="fill:#f6a821;fill-rule:nonzero;"/><path d="M60,13.729c0,-3.579 -2.658,-6.541 -6.102,-7.037l0,-3.133c0,-0.562 -0.454,-1.017 -1.017,-1.017c-0.562,0 -1.017,0.455 -1.017,1.017l0,3.133c-3.443,0.496 -6.101,3.458 -6.101,7.037c0,3.578 2.658,6.541 6.101,7.037l0,35.675c0,0.562 0.455,1.017 1.017,1.017c0.563,0 1.017,-0.455 1.017,-1.017l0,-35.675c3.444,-0.496 6.102,-3.459 6.102,-7.037Zm-7.119,5.085c-2.803,0 -5.084,-2.281 -5.084,-5.085c0,-2.804 2.281,-5.085 5.084,-5.085c2.804,0 5.085,2.281 5.085,5.085c0,2.804 -2.281,5.085 -5.085,5.085Z" style="fill:#f6a821;fill-rule:nonzero;"/><path d="M53.898,10.678l-2.034,0c-0.562,0 -1.017,0.455 -1.017,1.017c0,0.562 0.455,1.017 1.017,1.017l2.034,0c0.563,0 1.017,-0.455 1.017,-1.017c0,-0.562 -0.454,-1.017 -1.017,-1.017Z" style="fill:#f6a821;fill-rule:nonzero;"/><path d="M38.644,22.881l-2.034,0c-0.562,0 -1.017,0.455 -1.017,1.017c0,0.563 0.455,1.017 1.017,1.017l2.034,0c0.562,0 1.017,-0.454 1.017,-1.017c0,-0.562 -0.455,-1.017 -1.017,-1.017Z" style="fill:#f6a821;fill-rule:nonzero;"/><path d="M38.644,26.949l-2.034,0c-0.562,0 -1.017,0.455 -1.017,1.017c0,0.562 0.455,1.017 1.017,1.017l2.034,0c0.562,0 1.017,-0.455 1.017,-1.017c0,-0.562 -0.455,-1.017 -1.017,-1.017Z" style="fill:#f6a821;fill-rule:nonzero;"/><path d="M23.39,35.085l-2.034,0c-0.562,0 -1.017,0.454 -1.017,1.017c0,0.562 0.455,1.017 1.017,1.017l2.034,0c0.562,0 1.017,-0.455 1.017,-1.017c0,-0.563 -0.455,-1.017 -1.017,-1.017Z" style="fill:#f6a821;fill-rule:nonzero;"/><path d="M23.39,39.153l-2.034,0c-0.562,0 -1.017,0.454 -1.017,1.016c0,0.563 0.455,1.017 1.017,1.017l2.034,0c0.562,0 1.017,-0.454 1.017,-1.017c0,-0.562 -0.455,-1.016 -1.017,-1.016Z" style="fill:#f6a821;fill-rule:nonzero;"/><path d="M8.136,47.288l-2.034,0c-0.563,0 -1.017,0.455 -1.017,1.017c0,0.562 0.454,1.017 1.017,1.017l2.034,0c0.562,0 1.017,-0.455 1.017,-1.017c0,-0.562 -0.455,-1.017 -1.017,-1.017Z" style="fill:#f6a821;fill-rule:nonzero;"/><path d="M8.136,51.356l-2.034,0c-0.563,0 -1.017,0.455 -1.017,1.017c0,0.562 0.454,1.017 1.017,1.017l2.034,0c0.562,0 1.017,-0.455 1.017,-1.017c0,-0.562 -0.455,-1.017 -1.017,-1.017Z" style="fill:#f6a821;fill-rule:nonzero;"/><path d="M53.898,14.746l-2.034,0c-0.562,0 -1.017,0.454 -1.017,1.017c0,0.562 0.455,1.017 1.017,1.017l2.034,0c0.563,0 1.017,-0.455 1.017,-1.017c0,-0.563 -0.454,-1.017 -1.017,-1.017Z" style="fill:#f6a821;fill-rule:nonzero;"/></g></svg>