<?xml version="1.0" encoding="UTF-8" standalone="no"?><!DOCTYPE svg PUBLIC "-//W3C//DTD SVG 1.1//EN" "http://www.w3.org/Graphics/SVG/1.1/DTD/svg11.dtd"><svg width="100%" height="100%" viewBox="0 0 60 60" version="1.1" xmlns="http://www.w3.org/2000/svg" xmlns:xlink="http://www.w3.org/1999/xlink" xml:space="preserve" xmlns:serif="http://www.serif.com/" style="fill-rule:evenodd;clip-rule:evenodd;stroke-linejoin:round;stroke-miterlimit:1.41421;"><g><path d="M49.245,29.318c-2.404,-3.564 -5.476,-6.302 -7.945,-8.501c-2.213,-1.972 -4.164,-3.711 -4.655,-5.213c1.03,-0.402 1.761,-1.404 1.761,-2.574c0,-1.141 -0.695,-2.122 -1.684,-2.543l2.042,-8.008c0.219,-0.774 0.079,-1.488 -0.384,-1.962c-0.465,-0.476 -1.182,-0.632 -1.965,-0.426c-0.015,0.004 -0.03,0.008 -0.044,0.013c-0.039,0.012 -3.845,1.227 -5.109,1.59c-0.822,0.236 -2.265,0.237 -3.087,0.003c-1.278,-0.364 -5.125,-1.584 -5.163,-1.597c-0.015,-0.004 -0.03,-0.009 -0.044,-0.012c-0.784,-0.205 -1.5,-0.048 -1.966,0.429c-0.465,0.477 -0.603,1.197 -0.379,1.976c0.002,0.009 0.005,0.018 0.008,0.028l2.592,7.99c-0.96,0.434 -1.629,1.399 -1.629,2.519c0,1.17 0.731,2.172 1.761,2.574c-0.491,1.502 -2.442,3.241 -4.655,5.213c-2.469,2.199 -5.541,4.937 -7.945,8.5c-2.833,4.201 -4.211,8.719 -4.211,13.811c0,4.593 1.846,8.806 5.196,11.865c3.589,3.276 8.602,5.007 14.498,5.007l7.524,0c5.896,0 10.909,-1.731 14.498,-5.007c3.35,-3.059 5.196,-7.272 5.196,-11.865c0,-5.092 -1.378,-9.609 -4.211,-13.81Zm-17.38,-15.289c-0.001,0 -0.001,0 -0.002,0l-3.726,0c-0.001,0 -0.002,0 -0.003,0l-3.777,0c-0.551,0 -1,-0.448 -1,-0.999c0,-0.55 0.448,-0.998 0.998,-0.999c0,0 0.001,0 0.001,0c0.001,0 0.002,0 0.003,0l4.697,0c0.001,0 0.002,0 0.003,0c0.001,0 0.002,0 0.004,0l1.875,0c0.001,0 0.002,0 0.003,0c0.001,0 0.002,0 0.003,0l4.699,0c0.552,0 1,0.448 1,0.999c0,0.551 -0.448,0.999 -1,0.999l-3.778,0Zm-9.584,-12.265c0.042,-0.003 0.114,-0.001 0.222,0.025c0.363,0.115 3.925,1.244 5.188,1.604c1.138,0.324 2.92,0.323 4.057,-0.004c1.25,-0.358 4.772,-1.482 5.134,-1.597c0.106,-0.026 0.178,-0.029 0.22,-0.026c0.002,0.045 -0.003,0.122 -0.037,0.239c-0.002,0.008 -0.005,0.017 -0.007,0.026l-2.1,8.236l-2.888,0l0.666,-2.666c0.119,-0.473 -0.169,-0.951 -0.641,-1.07c-0.472,-0.118 -0.951,0.17 -1.069,0.642l-0.774,3.094l-0.504,0l-0.774,-3.094c-0.118,-0.473 -0.597,-0.76 -1.069,-0.642c-0.473,0.118 -0.76,0.597 -0.642,1.07l0.667,2.666l-2.933,0l-2.683,-8.275c-0.031,-0.111 -0.035,-0.185 -0.033,-0.228Zm24.79,51.927c-3.258,2.973 -7.86,4.545 -13.309,4.545l-7.524,0c-5.449,0 -10.051,-1.572 -13.309,-4.545c-2.98,-2.721 -4.621,-6.472 -4.621,-10.563c0,-10.691 6.685,-16.646 11.565,-20.994c2.632,-2.344 4.777,-4.256 5.262,-6.341l1.76,0l-0.553,1.661c-0.154,0.462 0.095,0.961 0.557,1.116c0.093,0.03 0.187,0.045 0.279,0.045c0.37,0 0.714,-0.234 0.837,-0.603l0.74,-2.219l2.491,0l0.739,2.219c0.123,0.369 0.467,0.603 0.837,0.603c0.092,0 0.186,-0.015 0.279,-0.045c0.462,-0.155 0.711,-0.654 0.557,-1.116l-0.553,-1.661l1.76,0c0.485,2.085 2.63,3.997 5.262,6.341c4.881,4.348 11.565,10.303 11.565,20.994c0,4.091 -1.641,7.842 -4.621,10.563Z" style="fill:#f6a821;fill-rule:nonzero;"/></g></svg>