<?xml version="1.0" encoding="UTF-8" standalone="no"?><!DOCTYPE svg PUBLIC "-//W3C//DTD SVG 1.1//EN" "http://www.w3.org/Graphics/SVG/1.1/DTD/svg11.dtd"><svg width="100%" height="100%" viewBox="0 0 60 60" version="1.1" xmlns="http://www.w3.org/2000/svg" xmlns:xlink="http://www.w3.org/1999/xlink" xml:space="preserve" xmlns:serif="http://www.serif.com/" style="fill-rule:evenodd;clip-rule:evenodd;stroke-linejoin:round;stroke-miterlimit:1.41421;"><circle cx="44.558" cy="32.395" r="1.966" style="fill:#fff;"/><path d="M27.21,20.155c-0.845,0.169 -1.688,0.393 -2.505,0.665c-0.537,0.18 -0.828,0.761 -0.648,1.299c0.143,0.43 0.544,0.702 0.973,0.702c0.108,0 0.218,-0.017 0.325,-0.053c0.736,-0.246 1.496,-0.447 2.258,-0.6c2.777,-0.555 5.682,-0.464 8.401,0.262c0.548,0.146 1.11,-0.18 1.257,-0.727c0.146,-0.548 -0.179,-1.111 -0.727,-1.257c-3.022,-0.807 -6.249,-0.908 -9.334,-0.291Z" style="fill:#f6a821;fill-rule:nonzero;"/><path d="M10.667,43.491c-0.51,-1.234 -0.814,-2.654 -0.903,-4.22c-0.178,-3.145 0.575,-6.317 2.176,-9.173c0.611,-1.089 1.188,-2.001 1.714,-2.711c2.806,-3.781 6.663,-6.511 11.155,-7.894c4.435,-1.365 9.085,-1.302 13.446,0.183c0.537,0.183 1.12,-0.104 1.303,-0.641c0.183,-0.536 -0.104,-1.12 -0.641,-1.303c-4.773,-1.625 -9.86,-1.695 -14.713,-0.201c-4.912,1.512 -9.13,4.497 -12.199,8.633c-0.578,0.779 -1.202,1.765 -1.855,2.929c-1.075,1.916 -1.805,3.961 -2.177,6.053c-0.68,0.058 -1.645,0.015 -2.26,-0.465c-0.502,-0.392 -0.746,-1.051 -0.746,-2.015c0,-0.567 -0.459,-1.027 -1.026,-1.027c-0.567,0 -1.027,0.46 -1.027,1.027c0,1.615 0.517,2.838 1.536,3.633c0.771,0.603 1.823,0.921 3.043,0.921c0.011,0 0.023,0 0.034,0c0.067,0 0.133,-0.002 0.197,-0.004c-0.046,0.722 -0.051,1.447 -0.01,2.171c0.102,1.797 0.457,3.441 1.056,4.889c0.163,0.395 0.546,0.634 0.949,0.634c0.131,0 0.264,-0.025 0.392,-0.078c0.524,-0.217 0.773,-0.817 0.556,-1.341Z" style="fill:#f6a821;fill-rule:nonzero;"/><path d="M56.059,31.464l-4.355,0c-0.312,-1.055 -0.706,-2.093 -1.173,-3.097l0,-9.761c0,-0.567 -0.46,-1.026 -1.027,-1.026l-1.142,0c-1.918,0 -3.73,0.805 -5.013,2.191c-0.415,-0.245 -0.84,-0.479 -1.266,-0.697c-0.505,-0.258 -1.124,-0.059 -1.382,0.446c-0.258,0.505 -0.059,1.123 0.446,1.382c0.449,0.23 0.897,0.479 1.332,0.741c0.355,0.214 0.445,0.283 0.454,0.29c0.223,0.178 0.51,0.256 0.792,0.214c0.283,-0.042 0.535,-0.2 0.696,-0.435c0.892,-1.302 2.365,-2.079 3.941,-2.079l0.116,0l0,8.965c0,0.153 0.034,0.305 0.1,0.443c0.571,1.191 1.025,2.438 1.35,3.705c0.117,0.454 0.526,0.772 0.995,0.772l4.11,0l0,9.672l-4.415,0c-0.449,0 -0.846,0.291 -0.98,0.72c-0.686,2.189 -1.734,4.236 -3.115,6.083c-0.133,0.178 -0.204,0.393 -0.204,0.615l0,7.339l-7.205,0l0,-5.483c0,-0.336 -0.165,-0.652 -0.441,-0.843c-0.277,-0.192 -0.63,-0.236 -0.945,-0.118l-0.187,0.07c-4.787,1.79 -10.051,1.767 -14.822,-0.067c-0.316,-0.121 -0.671,-0.08 -0.95,0.112c-0.279,0.192 -0.445,0.508 -0.445,0.846l0,5.483l-7.203,0l0,-7.339c0,-0.222 -0.072,-0.438 -0.204,-0.615c-0.864,-1.154 -1.605,-2.4 -2.203,-3.706c-0.237,-0.515 -0.846,-0.742 -1.362,-0.505c-0.515,0.236 -0.741,0.845 -0.505,1.361c0.611,1.333 1.358,2.611 2.221,3.802l0,8.028c0,0.568 0.46,1.027 1.027,1.027l9.256,0c0.567,0 1.027,-0.46 1.027,-1.027l0,-5.065c4.455,1.392 9.224,1.393 13.683,-0.001l0,5.066c0,0.567 0.46,1.027 1.027,1.027l9.257,0c0.568,0 1.027,-0.46 1.027,-1.027l0,-8.028c1.27,-1.755 2.272,-3.669 2.986,-5.702l4.701,0c0.567,0 1.027,-0.459 1.027,-1.026l0,-11.726c0,-0.567 -0.46,-1.027 -1.027,-1.027Z" style="fill:#f6a821;fill-rule:nonzero;"/><path d="M47.48,32.395c0,-1.651 -1.343,-2.993 -2.993,-2.993c-1.651,0 -2.993,1.342 -2.993,2.993c0,1.65 1.342,2.993 2.993,2.993c1.65,0 2.993,-1.343 2.993,-2.993Zm-3.933,0c0,-0.518 0.422,-0.94 0.94,-0.94c0.518,0 0.939,0.422 0.939,0.94c0,0.518 -0.421,0.939 -0.939,0.939c-0.518,0 -0.94,-0.421 -0.94,-0.939Z" style="fill:#f6a821;fill-rule:nonzero;"/><path d="M30.137,15.414c4.25,0 7.707,-3.457 7.707,-7.707c0,-4.25 -3.457,-7.707 -7.707,-7.707c-1.283,0 -2.554,0.322 -3.675,0.931c-0.498,0.271 -0.682,0.894 -0.412,1.392c0.271,0.498 0.894,0.683 1.393,0.412c0.821,-0.446 1.752,-0.682 2.694,-0.682c3.117,0 5.654,2.537 5.654,5.654c0,3.118 -2.537,5.654 -5.654,5.654c-3.118,0 -5.654,-2.536 -5.654,-5.654c0,-1.133 0.334,-2.226 0.965,-3.16c0.318,-0.47 0.194,-1.108 -0.276,-1.426c-0.47,-0.317 -1.108,-0.194 -1.425,0.276c-0.862,1.275 -1.317,2.766 -1.317,4.31c0,4.25 3.457,7.707 7.707,7.707Z" style="fill:#f6a821;fill-rule:nonzero;"/></svg>